<?xml version="1.0" standalone="no"?>
<!DOCTYPE svg PUBLIC "-//W3C//DTD SVG 20010904//EN"
 "http://www.w3.org/TR/2001/REC-SVG-20010904/DTD/svg10.dtd">
<svg version="1.0" xmlns="http://www.w3.org/2000/svg"
 width="260.000000pt" height="260.000000pt" viewBox="0 0 260.000000 260.000000"
 preserveAspectRatio="xMidYMid meet">
<metadata>
Created by potrace 1.14, written by Peter Selinger 2001-2017
</metadata>
<g transform="translate(0.000000,260.000000) scale(0.100000,-0.100000)"
fill="#000000" stroke="none">
<path d="M1087 2374 c-216 -39 -393 -131 -554 -287 -296 -287 -398 -712 -265
-1101 15 -44 32 -81 37 -82 10 -3 888 1360 946 1469 9 15 4 17 -38 16 -26 0
-83 -7 -126 -15z"/>
<path d="M1341 2294 c397 -628 1023 -1593 1030 -1588 17 10 69 122 99 212 50
152 64 242 64 412 0 166 -14 259 -60 400 -27 81 -102 240 -133 280 l-19 24
-86 -57 -85 -56 -34 47 c-50 67 -181 191 -256 242 -141 95 -332 162 -502 176
l-81 7 63 -99z"/>
<path d="M1238 1959 c-19 -30 -92 -143 -162 -252 -70 -109 -126 -201 -123
-203 2 -2 148 -3 325 -2 l321 3 -144 223 c-79 122 -152 236 -163 253 l-20 32
-34 -54z"/>
<path d="M620 999 c-102 -160 -186 -297 -188 -305 -5 -21 149 -175 235 -235
98 -67 222 -125 341 -156 86 -24 116 -27 262 -27 146 0 176 3 262 27 119 32
243 89 342 157 93 64 250 225 239 243 -4 8 -91 143 -193 300 l-184 287 -466 0
-465 -1 -185 -290z"/>
</g>
</svg>
